<svg xmlns="http://www.w3.org/2000/svg" xmlns:xlink="http://www.w3.org/1999/xlink" width="236" height="264" viewBox="0 0 236 264"><defs><clipPath id="b"><rect width="236" height="264"/></clipPath></defs><g id="a" clip-path="url(#b)"><g transform="translate(-157 -126)"><path d="M2144.676,120.737s2.931,25.906,13.254,40.572,28.039,18.094,28.039,18.094" transform="translate(-1984 68)" fill="none" stroke="#09bc8a" stroke-linecap="round" stroke-width="10"/><line y2="65" transform="translate(223.5 320.5)" fill="none" stroke="#09bc8a" stroke-linecap="round" stroke-width="10"/><line y2="65" transform="translate(336.5 320.5)" fill="none" stroke="#09bc8a" stroke-linecap="round" stroke-width="10"/><rect width="56" height="209" rx="10" transform="translate(195 126)" fill="#09bc8a"/><rect width="56" height="128" rx="10" transform="translate(252 207)" fill="#09bc8a"/><rect width="56" height="175" rx="10" transform="translate(309 160)" fill="#09bc8a"/><circle cx="10.5" cy="10.5" r="10.5" transform="translate(213 248)"/><circle cx="10.5" cy="10.5" r="10.5" transform="translate(326 248)"/><path d="M2218,400.876s23.708,21.542,47.935,21.542,48.97-21.542,48.97-21.542" transform="translate(-1986 -136)" fill="none" stroke="#000" stroke-linecap="round" stroke-width="5"/><path d="M2144.676,120.737s2.931,25.906,13.254,40.572,28.039,18.094,28.039,18.094" transform="translate(2532.646 427.139) rotate(180)" fill="none" stroke="#09bc8a" stroke-linecap="round" stroke-width="10"/></g></g></svg>