<svg xmlns="http://www.w3.org/2000/svg" xmlns:xlink="http://www.w3.org/1999/xlink" width="341" height="264" viewBox="0 0 341 264"><defs><clipPath id="b"><rect width="341" height="264"/></clipPath></defs><g id="a" clip-path="url(#b)"><g transform="translate(-98 -126)"><path d="M2144.676,120.737s2.931,25.906,13.254,40.572,28.039,18.094,28.039,18.094" transform="translate(848.774 -1808.629) rotate(104)" fill="none" stroke="#09bc8a" stroke-linecap="round" stroke-width="10"/><line y2="65" transform="translate(223.5 320.5)" fill="none" stroke="#09bc8a" stroke-linecap="round" stroke-width="10"/><line y2="65" transform="translate(336.5 320.5)" fill="none" stroke="#09bc8a" stroke-linecap="round" stroke-width="10"/><rect width="56" height="209" rx="10" transform="translate(195 126)" fill="#09bc8a"/><rect width="56" height="128" rx="10" transform="translate(252 207)" fill="#09bc8a"/><rect width="56" height="175" rx="10" transform="translate(309 160)" fill="#09bc8a"/><circle cx="10.5" cy="10.5" r="10.5" transform="translate(213 248)"/><circle cx="10.5" cy="10.5" r="10.5" transform="translate(326 248)"/><path d="M2218,400.876s23.708,21.542,47.935,21.542,48.97-21.542,48.97-21.542" transform="translate(-1986 -136)" fill="none" stroke="#000" stroke-linecap="round" stroke-width="5"/><path d="M2144.676,120.737s2.931,25.906,13.254,40.572,28.039,18.094,28.039,18.094" transform="translate(2532.646 427.139) rotate(180)" fill="none" stroke="#09bc8a" stroke-linecap="round" stroke-width="10"/><circle cx="18.5" cy="18.5" r="18.5" transform="translate(127 251)" fill="#045740"/><circle cx="13" cy="13" r="13" transform="translate(114 360)" fill="#02402f"/><circle cx="11.5" cy="11.5" r="11.5" transform="translate(98 366)" fill="#09bc8a"/><path d="M2373.43,1514.4s-23.5,46.07-9.115,63.779,59.967,15.945,64.075,0-47.642-63.779-47.642-63.779" transform="translate(-1990 -1208)" fill="#058e68"/><path d="M2368.054,1514.4s-14.332,28.1-5.559,38.9,36.571,9.724,39.076,0-29.055-38.9-29.055-38.9" transform="translate(-1983 -1203)" fill="#045740"/></g></g></svg>