<svg xmlns="http://www.w3.org/2000/svg" xmlns:xlink="http://www.w3.org/1999/xlink" width="207" height="263" viewBox="0 0 207 263"><defs><clipPath id="b"><rect width="207" height="263"/></clipPath></defs><g id="a" clip-path="url(#b)"><g transform="translate(-172 -120)"><line y2="65" transform="translate(223.5 312.5)" fill="none" stroke="#09bc8a" stroke-linecap="round" stroke-width="10"/><rect width="195" height="57" rx="10" transform="translate(181 242)" fill="#045740"/><line y2="57" transform="translate(336.5 320.5)" fill="none" stroke="#09bc8a" stroke-linecap="round" stroke-width="10"/><rect width="56" height="156" rx="10" transform="translate(195 179)" fill="#09bc8a"/><rect width="56" height="128" rx="10" transform="translate(252 207)" fill="#09bc8a"/><rect width="56" height="162" rx="10" transform="translate(309 173)" fill="#09bc8a"/><circle cx="10.5" cy="10.5" r="10.5" transform="translate(213 248)"/><circle cx="10.5" cy="10.5" r="10.5" transform="translate(326 248)"/><line y2="65" transform="translate(188.5 259.5)" fill="none" stroke="#09bc8a" stroke-linecap="round" stroke-width="10"/><line y2="65" transform="translate(371.5 259.5)" fill="none" stroke="#09bc8a" stroke-linecap="round" stroke-width="10"/><path d="M101.751,0C157.947,0,203.5,42.555,203.5,95.05s-45.556-3.636-101.751-3.636S0,147.545,0,95.05,45.556,0,101.751,0Z" transform="translate(172.498 119.876)" fill="#045740"/><line x2="24" transform="translate(266.5 292.5)" fill="none" stroke="#000" stroke-linecap="round" stroke-width="4"/></g></g></svg>