<svg xmlns="http://www.w3.org/2000/svg" xmlns:xlink="http://www.w3.org/1999/xlink" width="270" height="264" viewBox="0 0 270 264"><defs><clipPath id="b"><rect width="270" height="264"/></clipPath></defs><g id="a" clip-path="url(#b)"><path d="M2144.676,120.737s2.931,25.906,13.254,40.572,28.039,18.094,28.039,18.094" transform="translate(-2125 -58)" fill="none" stroke="#09bc8a" stroke-linecap="round" stroke-width="10"/><line y2="65" transform="translate(82.5 194.5)" fill="none" stroke="#09bc8a" stroke-linecap="round" stroke-width="10"/><line y2="65" transform="translate(195.5 194.5)" fill="none" stroke="#09bc8a" stroke-linecap="round" stroke-width="10"/><rect width="56" height="209" rx="10" transform="translate(54)" fill="#09bc8a"/><rect width="56" height="128" rx="10" transform="translate(111 81)" fill="#09bc8a"/><rect width="56" height="175" rx="10" transform="translate(168 34)" fill="#09bc8a"/><circle cx="10.5" cy="10.5" r="10.5" transform="translate(72 122)"/><circle cx="10.5" cy="10.5" r="10.5" transform="translate(185 122)"/><path d="M2144.676,188.69s2.931-30.007,13.254-47a48.307,48.307,0,0,1,28.039-20.958" transform="translate(2408.646 246.473) rotate(180)" fill="none" stroke="#09bc8a" stroke-linecap="round" stroke-width="10"/><circle cx="16" cy="16" r="16" transform="translate(122 145)"/></g></svg>