<svg xmlns="http://www.w3.org/2000/svg" xmlns:xlink="http://www.w3.org/1999/xlink" width="365" height="273" viewBox="0 0 365 273"><defs><clipPath id="b"><rect width="365" height="273"/></clipPath></defs><g id="a" clip-path="url(#b)"><g transform="translate(46 -49)"><path d="M2189.7,182.908s-31.439-8.387-30.061-35.935,30.061-26.236,30.061-26.236" transform="translate(-2127.728 57.666)" fill="none" stroke="#09bc8a" stroke-linecap="round" stroke-width="10"/><line y2="65" transform="translate(83.5 251.5)" fill="none" stroke="#09bc8a" stroke-linecap="round" stroke-width="10"/><line y2="65" transform="translate(196.5 251.5)" fill="none" stroke="#09bc8a" stroke-linecap="round" stroke-width="10"/><rect width="56" height="209" rx="10" transform="translate(55 57)" fill="#09bc8a"/><rect width="56" height="128" rx="10" transform="translate(112 138)" fill="#09bc8a"/><rect width="56" height="175" rx="10" transform="translate(169 91)" fill="#09bc8a"/><circle cx="10.5" cy="10.5" r="10.5" transform="translate(73 179)"/><circle cx="10.5" cy="10.5" r="10.5" transform="translate(186 179)"/><path d="M2221.683,422.418h80.192" transform="translate(-2126 -205)" fill="none" stroke="#000" stroke-linecap="round" stroke-width="5"/><path d="M2271,133.238s-3.729-23.4-23.938-26.321-35.539,13.82-35.539,13.82" transform="translate(2423.195 355.473) rotate(180)" fill="none" stroke="#045740" stroke-linecap="round" stroke-width="10"/><text transform="translate(140 118)" fill="#045740" font-size="91" font-family="Quicksand-Regular, Quicksand"><tspan x="-22.067" y="0">?</tspan></text><text transform="translate(-24 155)" fill="#045740" font-size="91" font-family="Quicksand-Regular, Quicksand"><tspan x="-22.067" y="0">?</tspan></text><text transform="translate(296 212)" fill="#045740" font-size="91" font-family="Quicksand-Regular, Quicksand"><tspan x="-22.067" y="0">?</tspan></text></g></g></svg>