<svg xmlns="http://www.w3.org/2000/svg" xmlns:xlink="http://www.w3.org/1999/xlink" width="390" height="264" viewBox="0 0 390 264"><defs><clipPath id="b"><rect width="390" height="264"/></clipPath></defs><g id="a" clip-path="url(#b)"><g transform="translate(-92 -126)"><path d="M2144.676,120.737s2.931,25.906,13.254,40.572,28.039,18.094,28.039,18.094" transform="translate(-1984 68)" fill="none" stroke="#09bc8a" stroke-linecap="round" stroke-width="10"/><path d="M0,0S-12.541,22.388-12.541,38.638,0,65,0,65" transform="translate(223.5 320.5)" fill="none" stroke="#09bc8a" stroke-linecap="round" stroke-width="10"/><path d="M0,0S-15.182,21.689-15.182,37.939,0,65,0,65" transform="translate(336.5 320.5)" fill="none" stroke="#09bc8a" stroke-linecap="round" stroke-width="10"/><rect width="56" height="209" rx="10" transform="translate(195 126)" fill="#09bc8a"/><rect width="56" height="128" rx="10" transform="translate(252 207)" fill="#09bc8a"/><rect width="56" height="175" rx="10" transform="translate(309 160)" fill="#09bc8a"/><circle cx="10.5" cy="10.5" r="10.5" transform="translate(213 248)"/><circle cx="10.5" cy="10.5" r="10.5" transform="translate(326 248)"/><path d="M2191.122,120.737s-3.3,29.138-14.908,45.635-31.538,20.352-31.538,20.352" transform="translate(-1786.707 69.277)" fill="none" stroke="#09bc8a" stroke-linecap="round" stroke-width="10"/><line x2="316" transform="translate(131.5 188.5)" fill="none" stroke="#444" stroke-width="10"/><rect width="22.326" height="92.739" transform="translate(109.174 143.261)"/><rect width="17.174" height="60.109" transform="translate(92 155.282)"/><rect width="22.869" height="92.052" transform="translate(448 143.948)"/><rect width="17.591" height="59.663" transform="translate(470.869 155.88)"/><g transform="translate(266 259)" fill="#fff"><path d="M 13.6107177734375 37 C 10.30645751953125 37 7.177217960357666 35.17198181152344 4.79942798614502 31.85268020629883 C 2.349327802658081 28.43243980407715 0.9999977946281433 23.86794090270996 0.9999977946281433 19 C 0.9999977946281433 14.13206005096436 2.349327802658081 9.567560195922852 4.79942798614502 6.147319793701172 C 7.177217960357666 2.828020095825195 10.30645751953125 1 13.6107177734375 1 C 16.91497802734375 1 20.04421806335449 2.828020095825195 22.4220085144043 6.147319793701172 C 24.87210845947266 9.567560195922852 26.22143745422363 14.13206005096436 26.22143745422363 19 C 26.22143745422363 23.86794090270996 24.87210845947266 28.43243980407715 22.4220085144043 31.85268020629883 C 20.04421806335449 35.17198181152344 16.91497802734375 37 13.6107177734375 37 Z" stroke="none"/><path d="M 13.6107177734375 2 C 10.63775825500488 2 7.79722785949707 3.679698944091797 5.612358093261719 6.729669570922852 C 4.49003791809082 8.296390533447266 3.605617523193359 10.13158988952637 2.983667373657227 12.18428993225098 C 2.330947875976562 14.33852005004883 1.999998092651367 16.63165092468262 1.999998092651367 19 C 1.999998092651367 21.36834907531738 2.330947875976562 23.66147994995117 2.983667373657227 25.81571006774902 C 3.605617523193359 27.86841011047363 4.49003791809082 29.70360946655273 5.612358093261719 31.27033042907715 C 7.79722785949707 34.3203010559082 10.63775825500488 36 13.6107177734375 36 C 16.58367919921875 36 19.42420768737793 34.3203010559082 21.60907745361328 31.27033042907715 C 22.73139762878418 29.70360946655273 23.61581802368164 27.86841011047363 24.23776817321777 25.81571006774902 C 24.89048767089844 23.66147994995117 25.22143745422363 21.36834907531738 25.22143745422363 19 C 25.22143745422363 16.63165092468262 24.89048767089844 14.33852005004883 24.23776817321777 12.18428993225098 C 23.61581802368164 10.13158988952637 22.73139762878418 8.296390533447266 21.60907745361328 6.729669570922852 C 19.42420768737793 3.679698944091797 16.58367919921875 2 13.6107177734375 2 M 13.6107177734375 0 C 21.12770843505859 0 27.22143745422363 8.506589889526367 27.22143745422363 19 C 27.22143745422363 29.49341011047363 21.12770843505859 38 13.6107177734375 38 C 6.093727111816406 38 -1.9073486328125e-06 29.49341011047363 -1.9073486328125e-06 19 C -1.9073486328125e-06 8.506589889526367 6.093727111816406 0 13.6107177734375 0 Z" stroke="none"/></g></g></g></svg>